<svg version="1" xmlns="http://www.w3.org/2000/svg" width="666.667" height="666.667" viewBox="0 0 500.000000 500.000000"><path d="M0 250v250h500V0H0v250zM286 28.9c19.5 3.3 46.2 11.2 48.8 14.4.6.7 2.6 10.9 4.5 22.7 2 11.8 6.3 37.6 9.6 57.3 3.4 19.7 6.1 36.3 6.1 36.8s-.6.9-1.4.9c-.7 0-17-10.9-36.2-24.2-36.5-25.2-52.3-36.2-76.1-52.5-7.9-5.4-17.3-11.9-21-14.6-3.8-2.6-12.2-8.4-18.8-12.9C185.7 46.1 177 39.7 177 38.7c0-2.6 29.1-9.2 53-12.1 9.5-1.1 44 .3 56 2.3zM170.7 50.7c3.7 2.5 13 8.9 20.7 14.2 29.4 20.4 42.6 29.5 56.4 38.8 7.8 5.3 14.2 10.2 14.2 10.8 0 .8-3.6 1.9-9.7 3-5.4.9-17.4 3.2-26.8 5-9.3 1.9-26 5-37 6.9-26.1 4.7-44 7.9-65.5 12.1-48.8 9.3-74 13.8-74.6 13.2-1.8-1.7 8.2-20.3 18.7-34.8 14.3-19.9 35-40.2 55.2-54.3 13.4-9.3 37.5-21.8 39.8-20.5 1 .5 4.9 3 8.6 5.6zm192.1 5.9c22.1 12.8 49.6 37.1 63.9 56.1 12.8 17.1 29.3 46.1 29.3 51.5 0 2.8-1.3 4.9-11 18.3-8.8 12.3-17.3 24.2-20 28.1-1.9 2.8-16.9 23.9-27.5 38.7-4.4 6.2-8.7 11.3-9.5 11.5-1.5.3-2.7-5.5-12-61.3-1.6-9.4-4.9-29.2-7.5-44-11.4-66.2-17.4-102.8-16.9-103.6.8-1.3.9-1.3 11.2 4.7zM160 149.9c0 .4-4.4 7.1-9.7 14.7-5.3 7.7-13.5 19.5-18.3 26.4-4.7 6.9-11.8 17-15.6 22.5C112.5 219 102 234.1 93 247c-9 12.9-20.3 29.1-25.2 36-4.8 6.9-10.1 14.5-11.8 17-9.8 14.4-16.4 23-17.3 22.7-2-.6-6.5-16.5-9.8-34.8-1.5-8.2-2.2-17.4-2.6-32.4-.6-23.2.7-36.7 5.3-57.4 2.4-10.8 7.6-26.7 9.3-28.4.7-.7 10.7-2.5 73.1-13.3 14.6-2.5 29.7-5.2 33.5-5.9 8.5-1.6 12.5-1.8 12.5-.6zm303 32.7c1.4 3.6 6.6 24.7 7.9 31.9 3.7 20.4 3.3 53.9-1 74.8-3.8 18.9-10.2 40-13.2 44-.8 1.1-8.1 2.9-25.2 6.1-13.2 2.5-37.9 7.2-55 10.5-32.4 6.3-37 7-36.2 4.8.4-1.1 23.3-34.7 31.9-46.7 4-5.6 14.7-21.1 60.3-87.5 5-7.1 13.3-19.2 18.5-26.8 5.2-7.5 9.8-13.7 10.2-13.7.5 0 1.3 1.2 1.8 2.6zM112.9 249c.6 2.8 2 9.9 3.2 15.8 1.1 5.9 3.8 19.2 5.9 29.7 2.1 10.4 4.4 21.9 5 25.5 1.3 7.7 7.2 38 17.6 90.3 4.2 20.8 7.3 38.5 7 39.3-.5 1.3-2 .8-8.2-2.6-12.9-7.1-29.1-18-37.4-25.3-26.1-23-43.6-45.3-57.6-73.8l-3.7-7.7 10.6-15.8c5.9-8.8 17.4-25.8 25.6-37.9 8.2-12.1 18-26.6 21.8-32.2 3.7-5.6 7.3-10.2 8-10.3.6 0 1.6 2.3 2.2 5zm56 107.9c11.3 7.6 28.3 19.1 37.6 25.4 9.4 6.4 25.3 17.2 35.5 24 10.2 6.9 28.9 19.6 41.5 28.2 12.7 8.6 26.3 17.8 30.3 20.3 4.2 2.7 7.1 5.3 7 6.1-.4 1.8-20 7.3-36.8 10.3-10.1 1.7-16.5 2.2-33.5 2.2-12.3 0-24.7-.5-30-1.2-13-1.9-42.4-9.6-49.2-12.9l-5.8-2.8-1.7-10c-1-5.5-4.5-25.5-7.8-44.5s-6.9-39.4-8-45.4c-2.3-12.8-2.4-13.6-.8-13.6.6 0 10.4 6.2 21.7 13.9zm280.6-7.9c.6.9-5.3 12-12.2 22.9-15.2 23.8-41.9 50.2-66.9 66.3-9.3 6-24.9 14.3-30.2 16.2-4.8 1.7-1.2 3.6-29.2-15.7-60.8-42-69.3-48.1-69.7-49.4-.5-1.4-2.7-.9 31.2-7.3 14.9-2.8 36.9-7.1 49-9.5 25.2-5 63.4-12.4 97.5-18.9 12.9-2.5 24.4-4.7 25.5-4.9 3.4-.8 4.4-.7 5 .3z"/></svg>